<svg width="64" height="64" viewBox="0 0 64 64" fill="none" xmlns="http://www.w3.org/2000/svg">
  <defs>
    <linearGradient id="magary_gradient" x1="0%" y1="0%" x2="0%" y2="100%">
      <stop offset="0%" style="stop-color:#7B1FA2;stop-opacity:1" /> <stop offset="100%" style="stop-color:#00BCD4;stop-opacity:1" /> </linearGradient>
  </defs>
  
  <!-- White Background/Border Layer -->
  <g stroke="white" stroke-width="4" stroke-linejoin="round" fill="white">
    <path d="M16 12L4 18V52L16 46V12Z"/>
    <path d="M16 12L28 18V52L16 46V12Z"/>
    <path d="M4 18L16 24L28 18L16 12L4 18Z"/>

    <path d="M48 12L36 18V52L48 46V12Z"/>
    <path d="M48 12L60 18V52L48 46V12Z"/>
    <path d="M36 18L48 24L60 18L48 12L36 18Z"/>
    
    <path d="M32 28L20 34V46L32 40V28Z"/>
    <path d="M32 28L44 34V46L32 40V28Z"/>
    <path d="M20 34L32 40L44 34L32 28L20 34Z"/>
  </g>

  <!-- Original Logo Layer -->
  <g fill="url(#magary_gradient)">
    <path d="M16 12L4 18V52L16 46V12Z" opacity="0.9"/>
    <path d="M16 12L28 18V52L16 46V12Z"/>
    <path d="M4 18L16 24L28 18L16 12L4 18Z" opacity="0.8"/>

    <path d="M48 12L36 18V52L48 46V12Z"/>
    <path d="M48 12L60 18V52L48 46V12Z" opacity="0.9"/>
    <path d="M36 18L48 24L60 18L48 12L36 18Z" opacity="0.8"/>
    
    <path d="M32 28L20 34V46L32 40V28Z" opacity="0.7"/>
    <path d="M32 28L44 34V46L32 40V28Z" opacity="0.7"/>
    <path d="M20 34L32 40L44 34L32 28L20 34Z" opacity="0.6"/>
  </g>
</svg>
